<?xml version="1.0" encoding="UTF-8" standalone="no"?>
<svg
   xmlns:dc="http://purl.org/dc/elements/1.1/"
   xmlns:cc="http://creativecommons.org/ns#"
   xmlns:rdf="http://www.w3.org/1999/02/22-rdf-syntax-ns#"
   xmlns:svg="http://www.w3.org/2000/svg"
   xmlns="http://www.w3.org/2000/svg"
   width="210mm"
   height="297mm"
   viewBox="0 0 210 297"
   version="1.1"
   id="svg1192">
  <defs
     id="defs1186" />
  <metadata
     id="metadata1189">
    <rdf:RDF>
      <cc:Work
         rdf:about="">
        <dc:format>image/svg+xml</dc:format>
        <dc:type
           rdf:resource="http://purl.org/dc/dcmitype/StillImage" />
        <dc:title></dc:title>
      </cc:Work>
    </rdf:RDF>
  </metadata>
  <g
     id="layer1">
    <path
       id="rect10-3-8-9-9-9-7"
       style="fill:#aa0000;stroke:none;stroke-width:0.346927"
       d="M 40.06526,0 0.11679,38.67515 v 28.41583 8.94572 12.22095 h 28.5936 3.60805 c 3.03538,0 5.47925,-2.44388 5.47925,-5.47926 v -5.67304 c 0,-3.03538 -2.44387,-5.47872 -5.47925,-5.47872 H 28.71039 15.68587 V 67.09098 H 80.13103 V 38.67515 L 69.54769,28.45925 V 2.54868 H 52.91667 v 9.85676 z m -0.75603,20.41062 a 9.6383924,9.6383924 0 0 1 9.63869,9.63869 9.6383924,9.6383924 0 0 1 -9.63869,9.63819 9.6383924,9.6383924 0 0 1 -9.63817,-9.63819 9.6383924,9.6383924 0 0 1 9.63817,-9.63869 z m 3.0241,50.92973 v 33.27289 2.50682 c 0,3.03538 2.44336,5.47925 5.47874,5.47925 h 5.67304 c 3.03538,0 5.47925,-2.44387 5.47925,-5.47925 v -5.67304 -30.10667 z m 21.16667,0 v 29.53102 3.60285 c 0,3.03538 2.44335,5.47926 5.47873,5.47926 h 5.67304 c 3.03538,0 5.47925,-2.44388 5.47926,-5.47926 V 98.80119 71.34035 Z M 0,92.79329 v 8.65373 3.43339 2.23965 c 0,3.03538 2.44336,5.47925 5.47874,5.47925 h 5.67303 c 3.03538,0 5.47926,-2.44387 5.47926,-5.47925 v -2.23965 -3.43339 -8.65373 z m 21.16667,0 v 13.55731 2.88612 c 0,3.03538 2.44335,5.47926 5.47873,5.47926 h 5.67304 c 3.03538,0 5.47925,-2.44388 5.47925,-5.47926 v -5.67303 -10.7704 z" />
  </g>
</svg>
