<svg xmlns="http://www.w3.org/2000/svg" viewBox="0 0 227 325.22"><defs><style>.cls-1{fill:#a00;}</style></defs><g id="Layer_2" data-name="Layer 2"><g id="svg1192"><g id="layer1"><path id="rect10-3-8-9-9-9-7" class="cls-1" d="M113.49,0,0,109.63V250.22H91.47A15.53,15.53,0,0,0,107,234.69V218.75a15.53,15.53,0,0,0-15.53-15.53H44v-13H227V109.66l-30-29V7.22H150v28Zm-1.81,58.19A27.32,27.32,0,0,1,139,85.51h0a27.31,27.31,0,0,1-27.32,27.32h0a27.32,27.32,0,0,1,0-54.64Zm8.32,144V303.69a15.53,15.53,0,0,0,15.53,15.53h15.94A15.53,15.53,0,0,0,167,303.69V202.22Zm60,1v93.47a15.53,15.53,0,0,0,15.53,15.53h15.94A15.53,15.53,0,0,0,227,296.69V203.22Zm-180,60v40.47a15.53,15.53,0,0,0,15.53,15.53H31.47A15.53,15.53,0,0,0,47,303.69V263.22Zm60,0v46.47a15.53,15.53,0,0,0,15.53,15.53H91.47A15.53,15.53,0,0,0,107,309.69V263.22Z"/></g></g></g></svg>